<?xml version="1.0" standalone="no"?>
<!DOCTYPE svg PUBLIC "-//W3C//DTD SVG 20010904//EN"
 "http://www.w3.org/TR/2001/REC-SVG-20010904/DTD/svg10.dtd">
<svg version="1.0" xmlns="http://www.w3.org/2000/svg"
 width="300.000000pt" height="300.000000pt" viewBox="0 0 300.000000 300.000000"
 preserveAspectRatio="xMidYMid meet">
<metadata>
Created by potrace 1.10, written by Peter Selinger 2001-2011
</metadata>
<g transform="translate(0.000000,300.000000) scale(0.100000,-0.100000)"
fill="#000000" stroke="none">
<path d="M1130 1779 c-85 -60 -237 -166 -337 -235 -101 -69 -183 -127 -183
-129 0 -3 22 -5 48 -5 46 0 60 9 339 200 l291 200 148 -100 c131 -88 153 -100
191 -100 45 0 56 12 25 29 -10 5 -92 62 -182 126 -90 65 -169 119 -175 120 -5
2 -80 -46 -165 -106z"/>
<path d="M1527 1839 c-32 -22 -57 -44 -57 -49 0 -5 9 -14 21 -20 17 -10 28 -7
60 14 21 14 41 26 44 26 3 0 70 -45 150 -100 133 -93 147 -100 192 -100 41 0
45 2 33 14 -27 26 -364 256 -376 256 -6 0 -36 -18 -67 -41z"/>
<path d="M804 1741 c-15 -15 6 -21 77 -21 56 0 80 3 77 11 -4 11 -144 20 -154
10z"/>
<path d="M820 1644 c0 -31 3 -54 8 -52 37 17 112 77 112 91 0 14 -9 17 -60 17
l-60 0 0 -56z"/>
<path d="M1900 1555 c-19 -23 -4 -45 30 -45 18 0 33 6 36 15 8 19 -13 45 -36
45 -10 0 -23 -7 -30 -15z"/>
<path d="M2052 1544 c-14 -10 -22 -25 -22 -45 0 -19 -5 -29 -15 -29 -8 0 -15
-4 -15 -10 0 -5 7 -10 15 -10 12 0 15 -19 15 -111 l0 -110 41 3 42 3 -2 106
c-2 106 -2 106 23 111 23 5 27 -2 70 -114 39 -101 44 -122 34 -143 -12 -27
-27 -32 -46 -13 -9 9 -15 9 -24 -1 -11 -10 -9 -15 6 -27 27 -19 50 -18 71 6
20 22 138 300 130 308 -10 10 -33 -8 -39 -31 -3 -13 -14 -44 -24 -68 l-19 -44
-22 73 -23 72 -69 0 c-65 0 -70 2 -81 25 -8 18 -8 29 -1 36 14 14 33 3 33 -17
0 -19 19 -18 26 1 16 40 -59 61 -104 29z m29 -76 c1 -7 0 -17 -1 -23 -1 -5 -2
-43 -1 -83 2 -49 -1 -72 -8 -67 -6 3 -10 38 -10 78 0 40 0 77 -1 82 -4 17 0
25 10 25 6 0 11 -6 11 -12z m176 -120 c19 -38 20 -48 9 -48 -10 0 -21 20 -31
52 -14 49 -20 91 -8 58 3 -8 16 -36 30 -62z"/>
<path d="M1343 1528 c-30 -13 -43 -25 -43 -38 0 -11 -7 -20 -15 -20 -21 0 -19
-18 2 -22 15 -3 17 -14 14 -90 -2 -76 0 -89 18 -107 23 -23 61 -27 92 -11 25
14 25 33 -1 25 -19 -6 -20 -2 -20 89 0 89 1 96 20 96 11 0 20 5 20 10 0 6 -9
10 -19 10 -16 0 -21 8 -23 38 l-3 38 -42 -18z m18 -139 c-4 -115 -15 -122 -22
-14 -6 95 -4 108 14 102 8 -2 10 -31 8 -88z"/>
<path d="M1773 1530 c-34 -11 -43 -19 -43 -37 0 -14 -6 -23 -15 -23 -8 0 -15
-4 -15 -10 0 -5 7 -10 15 -10 12 0 15 -17 15 -94 0 -87 2 -96 22 -110 26 -18
61 -20 89 -6 25 14 25 33 -1 25 -19 -6 -20 -2 -20 89 0 91 1 96 21 96 12 0 19
5 16 13 -2 6 -11 11 -20 9 -12 -2 -17 7 -19 35 l-3 38 -42 -15z m13 -72 c-3
-13 -6 -57 -7 -98 -1 -94 -6 -81 -12 33 -4 73 -2 87 10 87 11 0 14 -6 9 -22z"/>
<path d="M874 1470 c-83 -33 -98 -187 -22 -226 48 -25 113 -22 144 7 14 13 24
32 22 43 -5 32 -23 29 -33 -6 -8 -25 -16 -34 -36 -36 -31 -4 -48 15 -56 62
l-6 36 68 0 68 0 -6 38 c-11 68 -79 108 -143 82z m66 -36 c18 -47 13 -64 -20
-64 -23 0 -30 5 -30 19 0 29 18 71 30 71 6 0 15 -12 20 -26z m-76 -103 c-4
-17 -10 -28 -15 -25 -11 6 -12 68 -2 78 12 12 23 -21 17 -53z"/>
<path d="M1104 1466 c-33 -15 -44 -33 -44 -71 0 -24 22 -45 90 -88 43 -28 45
-51 7 -55 -30 -4 -67 21 -67 45 0 7 -9 13 -20 13 -26 0 -27 -31 -1 -54 29 -26
79 -37 125 -26 47 10 66 32 66 75 0 36 -16 53 -78 84 -46 23 -61 46 -44 63 16
16 60 1 67 -22 7 -23 45 -28 45 -6 0 23 -50 56 -84 56 -17 -1 -45 -7 -62 -14z
m116 -153 c0 -10 -10 -7 -33 11 -19 15 -38 26 -42 26 -11 0 -45 31 -45 41 0 5
27 -8 60 -28 33 -19 60 -42 60 -50z"/>
<path d="M1505 1471 c-48 -20 -58 -71 -16 -71 15 0 19 5 14 16 -7 19 21 44 49
44 9 0 22 -9 28 -21 15 -27 -4 -49 -57 -68 -21 -7 -46 -20 -55 -29 -24 -20
-23 -74 0 -95 21 -20 92 -23 110 -5 8 8 15 8 26 -1 17 -14 96 -11 96 4 0 6 -6
10 -12 10 -9 0 -14 28 -16 97 -2 68 -7 100 -17 108 -18 15 -123 23 -150 11z
m124 -128 c-1 -67 -2 -67 -10 -23 -11 63 -11 90 1 90 6 0 9 -28 9 -67z m-43
11 c-3 -9 -6 -31 -6 -50 0 -38 -25 -57 -41 -33 -13 19 -2 71 18 87 23 17 36
15 29 -4z"/>
<path d="M1915 1473 l-30 -4 3 -119 3 -120 40 0 39 0 0 125 c0 94 -3 125 -12
123 -7 0 -26 -3 -43 -5z"/>
</g>
</svg>
